<?xml version="1.0" encoding="UTF-8" standalone="no"?>
<svg
   viewBox="0 0 188.0128 188.0128"
   version="1.1"
   id="svg1"
   sodipodi:docname="dragon_orb.svg"
   width="188.0128"
   height="188.0128"
   inkscape:version="1.4 (86a8ad7, 2024-10-11)"
   xmlns:inkscape="http://www.inkscape.org/namespaces/inkscape"
   xmlns:sodipodi="http://sodipodi.sourceforge.net/DTD/sodipodi-0.dtd"
   xmlns:xlink="http://www.w3.org/1999/xlink"
   xmlns="http://www.w3.org/2000/svg"
   xmlns:svg="http://www.w3.org/2000/svg">
  <defs
     id="defs1">
    <linearGradient
       id="linearGradient69"
       inkscape:collect="always">
      <stop
         style="stop-color:#66ff00;stop-opacity:1;"
         offset="0"
         id="stop69" />
      <stop
         style="stop-color:#8dc5c5;stop-opacity:0.49803922;"
         offset="0.41842106"
         id="stop71" />
      <stop
         style="stop-color:#ac0213;stop-opacity:0.24705882;"
         offset="0.70350879"
         id="stop72" />
    </linearGradient>
    <clipPath
       clipPathUnits="userSpaceOnUse"
       id="clipPath5">
      <path
         id="path5"
         style="stroke-width:0.1;stroke-linecap:square;paint-order:markers fill stroke;stop-color:#000000"
         d="M 438.25066,553.76374 H 1298.1212 V 755.15928 H 438.25066 Z"
         sodipodi:nodetypes="ccccc" />
    </clipPath>
    <radialGradient
       inkscape:collect="always"
       xlink:href="#linearGradient69"
       id="radialGradient70"
       cx="264.56281"
       cy="241.77406"
       fx="264.56281"
       fy="241.77406"
       r="60.534294"
       gradientTransform="matrix(0.9858241,0.0048862,-0.00454231,0.91644877,4.8486323,18.907819)"
       gradientUnits="userSpaceOnUse" />
  </defs>
  <sodipodi:namedview
     id="namedview1"
     pagecolor="#ffffff"
     bordercolor="#000000"
     borderopacity="0.25"
     inkscape:showpageshadow="2"
     inkscape:pageopacity="0.0"
     inkscape:pagecheckerboard="0"
     inkscape:deskcolor="#d1d1d1"
     inkscape:zoom="2.4160156"
     inkscape:cx="173.21908"
     inkscape:cy="133.89814"
     inkscape:window-width="3440"
     inkscape:window-height="1417"
     inkscape:window-x="-8"
     inkscape:window-y="-8"
     inkscape:window-maximized="1"
     inkscape:current-layer="svg1" />
  <g
     id="g72"
     transform="translate(-172.19775,-166.39418)">
    <g
       id="g56"
       transform="matrix(3.7795276,0,0,3.7795276,-130.64624,-300.85926)"
       style="opacity:1">
      <rect
         style="display:inline;opacity:1;fill:#280b0b;fill-opacity:0.97377425;stroke:none;stroke-width:0.448882"
         id="rect32"
         width="49.440304"
         height="49.440304"
         x="80.279846"
         y="123.77985" />
    </g>
    <path
       style="fill:#552200;stroke:#6c5353;stroke-width:2.427;stroke-dasharray:none"
       d="m 213.86045,323.90972 -6.52725,9.80068 h 114.46536 l -6.53378,-9.80068 z"
       id="path36" />
    <path
       style="fill:#225500;stroke:#112b00;stroke-width:1.2;stroke-dasharray:none"
       d="m 234.44187,256.12171 c 0.81672,5.58639 1.56811,11.33612 2.05814,17.11852 3.13622,-0.71872 6.37044,0 9.53933,0.29402 l -0.65338,5.88041 c -2.97287,-0.32669 -6.7298,-0.62071 -8.46125,-0.13068 0.13067,2.8422 0.16334,5.68439 0.0653,8.52659 3.59359,-0.78406 7.64453,-0.32669 10.91142,0.55537 l -1.5681,5.68439 c -4.41031,-1.24142 -7.38318,-1.01274 -9.73534,-0.0327 -0.19602,2.09081 -0.49004,4.14896 -0.84939,6.2071 l -0.75139,4.08361 -3.62625,-2.05814 c -13.29625,-7.61186 -16.88983,-18.32726 -22.44028,-25.90645 -4.24696,-4.93301 -12.04503,1.96013 -12.57754,6.37044 3.48251,4.44297 6.06989,8.55925 8.08883,12.31618 1.92093,-2.18882 4.35477,-4.24696 7.80787,-5.29237 l 1.67592,5.61906 c -2.901,0.84939 -4.67493,2.87486 -6.62853,5.58638 2.76053,5.91308 4.21756,11.89149 7.21657,17.08585 h 98.98683 c 0.62071,-1.53544 1.14341,-3.07088 1.63344,-4.70433 -3.00554,-1.40476 -6.66446,-2.31949 -12.47953,-3.10354 l 0.78406,-5.81507 c 5.65172,0.78405 9.80067,1.73145 13.32892,3.23422 a 171.83852,171.83852 0 0 1 1.37209,-4.54098 c -2.25415,-1.33942 -5.25969,-2.61351 -9.01662,-3.72425 l 1.63345,-5.61906 c 3.62625,1.04541 6.76246,2.25416 9.40865,3.72426 1.96013,-4.76966 4.73699,-9.67 9.14729,-14.47233 -3.39756,-3.7896 -12.87155,-2.25416 -15.81175,-1.82946 -5.97842,8.16723 -11.20544,14.0803 -21.92085,23.58696 l -4.70432,4.18162 c -0.26136,-4.99835 -0.29402,-10.58473 0.29402,-14.9297 -1.8948,-1.50277 -6.37044,-2.97287 -10.48673,-3.07088 l 0.13068,-5.8804 c 4.11628,0.0653 8.23257,0.9474 11.5648,2.71152 0.75138,-3.07088 1.82946,-6.23977 3.26689,-9.27797 -2.51551,-3.00555 -5.48838,-5.09636 -8.33058,-5.84774 -3.03821,-0.78406 -5.91307,-0.35936 -8.91861,2.02547 -1.76412,9.89868 -7.28517,20.2874 -12.47953,25.18774 l -3.07088,2.87486 -1.66611,-3.85493 c -5.03102,-11.69547 -7.48119,-26.69051 -5.12902,-40.77081 -6.43578,-5.12902 -11.00943,-6.2071 -17.60855,-1.99281 z"
       id="path35" />
    <path
       style="fill:#f4eed7;stroke:#e3e2db;stroke-width:2.127;stroke-dasharray:none"
       d="m 327.7443,252.5608 c -4.01827,7.54652 -9.2453,14.43967 -11.53212,22.31288 5.06368,-0.16335 10.7154,-0.8494 14.79902,1.89479 0.71871,-7.54652 -1.04541,-16.10578 -3.2669,-24.20767 z"
       id="path34" />
    <path
       style="fill:#f4eed7;stroke:#e3e2db;stroke-width:2.127;stroke-dasharray:none"
       d="m 197.05882,246.32104 c -3.75692,9.44132 -5.71052,19.56868 -3.56744,28.55264 3.19828,-3.72426 8.04635,-6.27244 12.57753,-6.10909 -2.70172,-7.12183 -6.61872,-14.47233 -9.01009,-22.44355 z"
       id="path33" />
    <path
       style="fill:#f4eed7;stroke:#e3e2db;stroke-width:2.127;stroke-dasharray:none"
       d="m 290.92643,244.81827 c -5.16169,7.28517 -10.29071,14.73368 -12.93689,21.92084 2.28682,-0.42469 4.60632,-0.32669 6.79513,0.22869 2.64619,0.68604 5.09636,1.9928 7.35051,3.75692 0.4247,-8.26523 -0.45736,-17.24919 -1.20875,-25.90645 z"
       id="path32" />
    <path
       style="fill:#f4eed7;stroke:#e3e2db;stroke-width:2.127;stroke-dasharray:none"
       d="m 243.1318,227.66709 c -3.26689,7.08915 -5.71706,14.17831 -6.63179,20.9081 1.53544,-0.5227 3.16889,-0.88206 4.93301,-0.94739 2.64618,-0.098 5.42304,0.45736 8.33057,1.86212 -0.9474,-7.44851 -3.75692,-14.21098 -6.63179,-21.82283 z"
       id="path26" />
    <path
       style="fill:url(#radialGradient70);stroke:#dbe2e3;stroke-width:1.5;stroke-dasharray:none"
       d="m 234.10365,216.99499 c -17.23184,16.00868 -17.13965,47.98 -18.87111,58.14004 4.60632,6.89314 7.61186,13.85162 15.3544,19.56868 1.43743,-12.6102 -0.29402,-26.39649 -2.22149,-39.56206 l -0.26135,-1.76412 c 0.71871,-0.49004 1.4701,-1.11075 2.15615,-1.53544 2.52688,-11.55401 7.54164,-27.03464 13.56329,-31.22831 5.09037,5.01571 9.77813,19.84859 12.17982,33.1231 0.84939,0.78406 1.53544,1.47011 2.38483,2.28683 l -0.32669,1.53544 c -2.22149,11.33611 -0.75139,23.97898 2.74419,34.33503 3.33223,-4.933 7.05648,-12.83888 8.00388,-19.24199 0.0327,-1.30676 1.17608,-2.05814 2.09081,-2.71152 2.67886,-12.96956 12.74088,-24.69771 19.96071,-35.18443 l 4.93301,-7.15449 0.4247,8.68993 c 0.55537,12.0875 3.16888,26.69051 1.33942,40.1501 l 1.01274,1.40477 -0.84939,1.60077 c -2.71152,5.06369 -4.14896,10.94409 -4.80233,16.10578 6.56645,-6.43578 12.54486,-13.16557 16.9225,-19.30733 0.88206,-5.45571 3.56091,-10.68274 6.46844,-15.71375 2.77686,-4.90034 5.84774,-9.67 8.03656,-14.17831 -0.0653,-32.99561 -26.75585,-59.65345 -59.78413,-59.65345 -33.06094,0 -59.78412,26.72318 -59.78412,59.78412 0,1.33943 0.049,2.67885 0.13394,3.98561 2.79973,6.79514 6.38024,13.72095 8.45799,21.20213 -9.85622,-48.48068 18.98064,-77.72263 50.63682,-77.61809 8.03656,0.0327 16.20379,1.93074 24.01166,5.87714 -24.48385,-2.34216 -42.56236,6.51679 -53.91525,17.06382 z"
       id="path14"
       sodipodi:nodetypes="sccccccccccccccccccccccssccccs" />
  </g>
</svg>
