<?xml version="1.0" encoding="UTF-8" standalone="no"?>
<!-- Uploaded to: SVG Repo, www.svgrepo.com, Generator: SVG Repo Mixer Tools -->

<svg
   width="800px"
   height="800px"
   viewBox="0 0 128 128"
   aria-hidden="true"
   role="img"
   class="iconify iconify--noto"
   preserveAspectRatio="xMidYMid meet"
   version="1.1"
   id="svg45"
   sodipodi:docname="battle.svg"
   inkscape:version="1.4 (86a8ad7, 2024-10-11)"
   xmlns:inkscape="http://www.inkscape.org/namespaces/inkscape"
   xmlns:sodipodi="http://sodipodi.sourceforge.net/DTD/sodipodi-0.dtd"
   xmlns="http://www.w3.org/2000/svg"
   xmlns:svg="http://www.w3.org/2000/svg">
  <defs
     id="defs45" />
  <sodipodi:namedview
     id="namedview45"
     pagecolor="#ffffff"
     bordercolor="#000000"
     borderopacity="0.25"
     inkscape:showpageshadow="2"
     inkscape:pageopacity="0.0"
     inkscape:pagecheckerboard="0"
     inkscape:deskcolor="#d1d1d1"
     inkscape:zoom="0.27334097"
     inkscape:cx="-1525.5672"
     inkscape:cy="850.58601"
     inkscape:window-width="3440"
     inkscape:window-height="1417"
     inkscape:window-x="-8"
     inkscape:window-y="-8"
     inkscape:window-maximized="1"
     inkscape:current-layer="svg45" />
  <g
     id="g45">
    <path
       d="M16.84 28.01C7.08 18.25 3.55 3.55 3.55 3.55l92.61 92.61l-5.59 5.59c0-.01-63.97-63.98-73.73-73.74z"
       fill="#82aec0"
       id="path1" />
    <path
       d="M28.01 16.84C18.25 7.08 3.55 3.55 3.55 3.55l92.61 92.61l5.59-5.59l-73.74-73.73z"
       fill="#c9e3e6"
       id="path2" />
    <path
       fill="#874d36"
       d="M98.09 98.08l4.38-4.38l14.93 17.18l-1.59 4.93l-4.93 1.59l-17.18-14.93z"
       id="path3" />
    <path
       d="M98.09 98.08l4.39-4.39l14.93 17.18s1.43 1.9-1.59 4.92s-4.92 1.59-4.92 1.59l-17.2-14.91l4.39-4.39z"
       fill="#693928"
       id="path4" />
    <path
       d="M111.41 113.63c-.24.15-1.15.59-2.27-.37c-.63-.54-.7-1.14.01-1.57c1.56-.95 3.56-3.44 4.42-5.17l2.09 2.41c-1.09 1.84-2.46 3.61-4.25 4.7z"
       fill="#a65f3e"
       id="path5" />
    <path
       d="M107.06 108.4c-.24.15-1.35.73-2.19.23c-1.19-.71-.98-1.61-.27-2.04c1.56-.95 3.79-3.28 4.77-4.92l2.05 2.36c-1.26 1.8-2.62 3.31-4.36 4.37z"
       fill="#a65f3e"
       id="path6" />
    <path
       d="M101.66 104.59c-.24.15-1.19.4-2.15-.27c-.62-.44-.83-1.43-.12-1.86c1.79-1.08 4.41-3.83 5.62-5.78l2.04 2.35c-1.5 2.18-3.71 4.53-5.39 5.56z"
       fill="#a65f3e"
       id="path7" />
    <path
       d="M110.48 120.5l.4-3.1s1.55.01 4.04-2.48c2.49-2.49 2.48-4.04 2.48-4.04l3.1-.4c2.28-.4 4.24 1.64 3.92 3.91c-.31 2.13-1.5 4.54-3.49 6.54c-1.99 1.99-4.4 3.18-6.54 3.49c-2.26.32-4.2-1.65-3.91-3.92z"
       fill="#9e740b"
       id="path8" />
    <path
       d="M78.37 112.24l10.5-12.84l5.27-5.27l5.27-5.27l12.84-10.5c.62-.52 1.53-.48 2.11.09c.58.58.61 1.52.06 2.14c-2.78 3.1-8.38 9.59-10.89 12.26c-1.76 1.88-3.6 3.75-5.26 5.4c-1.65 1.65-3.53 3.49-5.4 5.26c-2.67 2.51-9.16 8.11-12.26 10.89c-.62.55-1.55.52-2.14-.06c-.59-.57-.62-1.48-.1-2.1z"
       fill="#9e740b"
       id="path9" />
    <g
       id="g20">
      <path
         d="M111.16 28.01c9.76-9.76 13.29-24.46 13.29-24.46L31.84 96.16l5.59 5.59c0-.01 63.97-63.98 73.73-73.74z"
         fill="#82aec0"
         id="path10" />
      <path
         d="M99.99 16.84c9.76-9.76 24.46-13.29 24.46-13.29L31.84 96.16l-5.59-5.59l73.74-73.73z"
         fill="#c9e3e6"
         id="path11" />
      <path
         fill="#874d36"
         d="M29.91 98.08l-4.38-4.38l-14.93 17.18l1.59 4.93l4.93 1.59l17.18-14.93z"
         id="path12" />
      <path
         d="M29.91 98.08l-4.39-4.39l-14.92 17.19s-1.54 1.79 1.59 4.92s4.92 1.59 4.92 1.59l17.18-14.93l-4.38-4.38z"
         fill="#693928"
         id="path13" />
      <path
         d="M17.52 120.5l-.4-3.1s-1.55.01-4.04-2.48s-2.48-4.04-2.48-4.04l-3.1-.4c-2.27-.29-4.24 1.64-3.92 3.91c.31 2.13 1.5 4.54 3.49 6.54c1.99 1.99 4.4 3.18 6.54 3.49c2.26.32 4.2-1.65 3.91-3.92z"
         fill="#9e740b"
         id="path14" />
      <path
         d="M49.63 112.24L39.13 99.4l-5.27-5.27l-5.27-5.27l-12.84-10.5c-.62-.52-1.53-.48-2.11.09c-.58.58-.61 1.52-.06 2.14c2.78 3.1 8.38 9.59 10.89 12.26c1.76 1.88 3.6 3.75 5.26 5.4c1.65 1.65 3.53 3.49 5.4 5.26c2.67 2.51 9.16 8.11 12.26 10.89c.62.55 1.55.52 2.14-.06c.59-.57.62-1.48.1-2.1z"
         fill="#9e740b"
         id="path15" />
      <path
         d="M5.1 113.86a8.09 8.09 0 0 0 2.86 4.36c2 1.58 3.16.38 2.26-1.44c-.73-1.46-1.28-2.19-2.37-4.13c-1.03-1.83-3.24-.75-2.75 1.21z"
         fill="#e2a610"
         id="path16" />
      <path
         d="M17.47 82.68c-.86-1.01.49-1.36 2.51.36C22 84.76 30.5 92.02 30.5 92.02c2.73 2.48 1.35 5.04 1.35 5.04c-2.21-1.75-13.52-13.37-14.38-14.38z"
         fill="#e2a610"
         id="path17" />
      <path
         d="M16.55 113.63c.24.15 1.15.59 2.27-.37c.63-.54.7-1.14-.01-1.57c-1.56-.95-3.56-3.44-4.42-5.17l-2.09 2.41c1.1 1.84 2.46 3.61 4.25 4.7z"
         fill="#a65f3e"
         id="path18" />
      <path
         d="M20.91 108.4c.24.15 1.35.73 2.19.23c1.19-.71.98-1.61.27-2.04c-1.56-.95-3.79-3.28-4.77-4.92l-2.05 2.36c1.25 1.8 2.62 3.31 4.36 4.37z"
         fill="#a65f3e"
         id="path19" />
      <path
         d="M26.3 104.59c.24.15 1.19.4 2.15-.27c.62-.44.83-1.43.12-1.86c-1.79-1.08-4.41-3.83-5.62-5.78l-2.04 2.35c1.5 2.18 3.71 4.53 5.39 5.56z"
         fill="#a65f3e"
         id="path20" />
    </g>
    <path
       fill="#2f7889"
       d="M64 75.17l5.57 5.58l9.36-12.99L75.17 64z"
       id="path21" />
    <path
       d="M102.26 87.83c-1.88 1.56 1.47 2.07 3.81-.29l4.7-4.67c1.17-1.19 1.17-3.23-1-1.53l-7.51 6.49z"
       fill="#e2a610"
       id="path22" />
    <path
       d="M118.75 114.94c-.67 1.04-.38 2.07.71 2.08c.78.01 1.62-.57 2.01-.96c.57-.57.98-1.03 1.26-2.2c.37-1.57-1.33-3.15-2.33-1.64c-.89 1.34-.98 1.69-1.65 2.72z"
       fill="#e2a610"
       id="path23" />
  </g>
</svg>
