<svg xmlns="http://www.w3.org/2000/svg" viewBox="0 0 512 512" style="height: 512px; width: 512px;"><defs><radialGradient id="lorc-wooden-sign-gradient-0"><stop offset="0%" stop-color="#c9c9c9" stop-opacity="1"></stop><stop offset="100%" stop-color="#4a90e2" stop-opacity="1"></stop></radialGradient></defs><g class="" transform="translate(1,0)" style=""><g><path d="M240.03 35.938C238.95 35.948 237.862 36 236.78 36.062C228.136 36.564 219.62 38.862 214.28 42.032C208.944 45.199 207.262 47.752 207.47 51.625L207.47 51.875L208.25 80.031L268.22 78.751L267.344 46.907C267.196 43.893 265.538 41.757 259.874 39.314C255.63 37.48 249.63 36.27 243.25 36C242.177 35.951 241.104 35.93 240.03 35.937Z" class="" fill="#b57204" fill-opacity="1"></path><path d="M464.97 93.156L33.593 102.53L34.968 164.53L189.623 168.594L41.467 178.314L38.56 277.124L39.966 277.437L48.026 279.281L47.183 287.501L40.277 354.971L469.81 345.688L464.219 283L323.843 279.344L463.063 270.188L454.186 170.781L315.311 167.157L466.343 157.22L464.968 93.156Z" class="selected" fill="#8b572a" fill-opacity="1"></path><path d="M276.31 368.562L216.435 369.844L220 495.78L279.844 495.78L276.314 368.563Z" class="" fill="#b57204" fill-opacity="1"></path></g></g><g font-family="&quot;Times New Roman&quot;, Times, serif" font-size="200" font-style="normal" font-weight="bold" text-anchor="middle" text-decoration=" rgba(248, 231, 28, 1)" class="" transform="translate(252,293)" style=""><g><text stroke="rgba(74, 74, 74, 0)" stroke-width="50"><tspan x="0" y="0">!</tspan></text><text fill="rgba(248, 231, 28, 1)"><tspan x="0" y="0">!</tspan></text></g></g></svg>