<svg xmlns="http://www.w3.org/2000/svg" viewBox="0 0 512 512" style="height: 512px; width: 512px;"><defs><filter id="shadow-4" height="300%" width="300%" x="-100%" y="-100%"><feFlood flood-color="rgba(255, 255, 255, 1)" result="flood"></feFlood><feComposite in="flood" in2="SourceGraphic" operator="out" result="composite"></feComposite><feGaussianBlur in="composite" stdDeviation="6" result="blur"></feGaussianBlur><feOffset dx="0" dy="0" result="offset"></feOffset><feComposite in="offset" in2="SourceGraphic" operator="atop"></feComposite></filter></defs><g class="" transform="translate(1,0)" style=""><g><path d="M311.133 257.95C312.292 266.2 306.539 273.825 298.288 274.976L151.04 295.586L129.71 328.108L47.073 339.678L68.403 307.11L43.856 310.55C43.578 310.55 43.301 310.67 43.013 310.715C42.315 310.812 41.61 310.86 40.905 310.859C29.301 310.925 21.978 298.404 27.723 288.322C30.054 284.231 34.163 281.464 38.831 280.843C39.121 280.843 39.398 280.843 39.686 280.765L64.233 277.327L34.783 251.815L117.365 240.268L146.815 265.778L294.075 245.17C294.773 245.073 295.477 245.024 296.182 245.025C303.687 245.013 310.059 250.52 311.135 257.948Z" class="" fill="#8b572a" fill-opacity="1"></path><path d="M274.429 219.404C277.189 215.162 280.904 211.626 285.276 209.078C289.345 206.744 294.021 205.685 298.698 206.038C303.577 206.501 308.248 208.241 312.24 211.085C317.001 214.46 321.052 218.738 324.164 223.675C327.952 229.57 330.783 236.028 332.55 242.809C334.453 249.98 335.316 257.387 335.112 264.804C334.953 271.597 333.775 278.327 331.618 284.77C329.781 290.387 326.882 295.599 323.078 300.122C319.797 304.046 315.51 307.002 310.676 308.674C306.217 310.138 301.421 310.227 296.911 308.929C292.254 307.536 287.975 305.1 284.399 301.807C282.3 299.923 280.38 297.847 278.665 295.607L246.387 300.121C248.396 305.597 250.768 310.933 253.487 316.094C258.377 325.494 264.668 334.096 272.143 341.606C278.914 348.488 287.054 353.872 296.036 357.412C304.822 360.825 314.414 361.597 323.633 359.632C333.652 357.309 342.788 352.144 349.943 344.756C357.841 336.903 364.363 326.498 369.055 314.242C374.095 300.79 376.905 286.605 377.375 272.247C377.984 256.418 376.136 240.59 371.895 225.327C368.069 211.054 361.814 197.546 353.405 185.395C345.805 174.669 336.988 166.449 327.625 160.992C319.193 155.903 309.511 153.265 299.663 153.372C290.243 153.667 281.113 156.696 273.385 162.09C265.169 167.856 258.291 175.324 253.22 183.987C247.78 193.176 243.739 203.123 241.23 213.503C239.478 220.563 238.291 227.752 237.68 235L268.872 230.63C270.238 226.666 272.106 222.894 274.429 219.404Z" class="" fill="#d0021b" fill-opacity="1"></path><path d="M472.734 184.42C461.808 149.146 445.447 119.663 425.892 97.046C407.335 75.528 386.348 60.786 364.774 52.833C344.619 45.423 324.21 44.093 304.821 48.585C286.763 52.789 269.625 62.051 254.218 76.205C239.798 89.415 228.128 105.831 219.033 124.012C210.203 141.963 203.72 160.976 199.743 180.582C195.635 200.54 193.672 220.88 193.887 241.256L216.469 238.096C216.837 224.516 218.527 211.004 221.516 197.752C224.834 182.775 230.209 168.329 237.488 154.826C244.853 141.426 254.204 129.702 265.485 120.739C277.375 111.299 290.365 105.753 303.785 104.099C317.95 102.325 332.558 104.843 346.723 111.609C361.586 118.709 375.807 130.389 388.208 146.383C401.064 162.955 411.723 183.843 418.868 208.3C425.937 232.519 428.891 257.753 427.608 282.95C426.354 307 421.208 329.372 412.888 348.606C404.846 367.186 394.031 382.493 381.064 393.486C368.751 403.956 354.719 410.401 339.601 412.142C325.487 413.654 311.23 411.195 298.438 405.042C286.125 399.32 274.612 390.557 264.408 379.532C254.104 368.26 245.444 355.589 238.684 341.895C232.55 329.558 227.678 316.633 224.142 303.317L201.658 306.423C206.189 326.367 212.884 345.756 221.624 364.246C230.113 382.276 240.928 399.117 253.792 414.338C266.782 429.524 281.612 442.168 297.706 451.131C314.886 460.705 333.733 466.195 353.411 465.996C374.674 465.786 394.851 458.974 412.931 446.218C432.287 432.564 448.936 412.321 461.548 386.786C474.792 359.966 483.245 327.998 485.596 293.146C488.003 256.411 483.646 219.547 472.74 184.386Z" class="selected" fill="#9b9b9b" fill-opacity="1" filter="url(#shadow-4)"></path></g></g></svg>