<?xml version="1.0" encoding="UTF-8" standalone="no"?>
<!-- Uploaded to: SVG Repo, www.svgrepo.com, Generator: SVG Repo Mixer Tools -->

<svg
   fill="#000000"
   height="770.68982"
   width="796.33344"
   version="1.1"
   id="Capa_1"
   viewBox="0 0 467.84589 452.78027"
   xml:space="preserve"
   sodipodi:docname="port.svg"
   inkscape:version="1.4 (86a8ad7, 2024-10-11)"
   xmlns:inkscape="http://www.inkscape.org/namespaces/inkscape"
   xmlns:sodipodi="http://sodipodi.sourceforge.net/DTD/sodipodi-0.dtd"
   xmlns="http://www.w3.org/2000/svg"
   xmlns:svg="http://www.w3.org/2000/svg"><defs
   id="defs7"><filter
     id="filter37"
     height="1"
     width="1"
     x="-4.3832182e-16"
     y="-4.4236051e-16"><feFlood
       flood-color="rgba(74, 74, 74, 1)"
       result="flood"
       id="feFlood36" /><feComposite
       in="flood"
       in2="SourceGraphic"
       operator="atop"
       result="composite"
       id="feComposite36" /><feGaussianBlur
       in="composite"
       stdDeviation="8.3653686e-14"
       result="blur"
       id="feGaussianBlur36" /><feOffset
       dx="0"
       dy="0"
       result="offset"
       id="feOffset36" /><feComposite
       in2="offset"
       in="SourceGraphic"
       operator="over"
       id="feComposite37" /></filter></defs><sodipodi:namedview
   id="namedview7"
   pagecolor="#000000"
   bordercolor="#000000"
   borderopacity="0.25"
   inkscape:showpageshadow="2"
   inkscape:pageopacity="0.0"
   inkscape:pagecheckerboard="true"
   inkscape:deskcolor="#d1d1d1"
   showborder="false"
   inkscape:zoom="0.27820232"
   inkscape:cx="555.35122"
   inkscape:cy="641.61937"
   inkscape:window-width="3440"
   inkscape:window-height="1417"
   inkscape:window-x="-8"
   inkscape:window-y="-8"
   inkscape:window-maximized="1"
   inkscape:current-layer="Capa_1" />

<g
   id="g39"
   transform="matrix(17.39703,0,0,17.39703,-252.35963,-1.2321334)"><g
     id="g38"
     style="fill:#000000;stroke:none"
     transform="matrix(0.02758461,0,0,0.02758461,34.934044,18.603294)"><path
       d="m 127,32 c -12,0 -23,10 -22,22 0,12 10,21 22,21 12,0 22,-9 22,-21 0,-12 -10,-22 -22,-22 z m -1,11 c 6,0 11,5 11,10 0,6 -5,11 -11,11 -6,0 -10,-5 -10,-11 0,-5 4,-10 10,-10 z"
       id="path37" /><path
       d="m 118.537,71.179 c -1.053,-0.019 0,2.075 0,9.084 v 9.084 L 96.656,89.041 c -17.203,-0.24 -22.227,-0.018 -23.5,1.038 -2.036,1.689 -2.356,13.078 -0.369,13.135 l 44.75,-0.104 c 0.05,10.689 0.189,21.379 0.053,32.069 -0.504,22.08 -0.892,44.162 -1.097,66.247 -0.09,11.96 -0.545,23.436 -1.011,25.5 -1.754,7.78 -6.661,8.837 -21.785,4.691 -15.729,-4.312 -35.264,-13.896 -38.552,-18.913 -2.614,-3.99 -3.022,-7.41 -1.133,-9.498 0.942,-1.041 2.342,-1.65 3.112,-1.355 0.851,0.326 1.746,-0.386 2.284,-1.817 1.893,-5.04 -4.426,-12.489 -16.872,-19.89 -3.025,-1.799 -7.975,-5.662 -11,-8.584 -3.174,-3.066 -5.973,-5.012 -6.619,-4.598 -2.009,1.287 -6.12,10.584 -7.383,16.697 -2.539,12.288 0.683,30.421 6.668,37.535 3.16,3.756 4.923,3.788 5.659,0.105 1.298,-6.49 9.375,-4.617 18.174,4.211 6.964,6.988 20.225,17.118 26,19.862 2.2,1.045 5.35,2.744 7,3.776 1.65,1.031 6.6,3.107 11,4.611 9.218,3.153 20.012,8.735 24.287,12.56 1.624,1.452 4.076,3.378 5.45,4.277 2.403,1.575 2.562,1.538 4.194,-0.954 3.399,-5.188 9.264,-9.729 18.146,-14.049 4.992,-2.43 9.828,-4.416 10.744,-4.416 1.949,0 18.395,-7.275 28.301,-12.521 7.764,-4.11 11.26,-6.587 19.934,-14.121 9.791,-8.505 14.745,-9.466 19.884,-3.856 l 3.208,3.503 2.061,-2.253 c 3.727,-4.075 5.098,-8.172 5.818,-17.383 0.551,-7.043 0.316,-10.867 -1.037,-16.98 -2.142,-9.658 -5.73,-17.913 -8.414,-19.35 -1.695,-0.906 -2.271,-0.645 -3.72,1.693 -2.519,4.065 -6.036,7.262 -12.812,11.642 -8.113,5.244 -13.01,10.649 -14.516,16.026 -1.453,5.193 -0.791,7.079 1.968,5.603 3.01,-1.611 4.971,-1.172 6.13,1.374 1.633,3.582 -0.819,6.465 -10.299,12.104 -16.191,9.631 -37.9,17.52 -48.216,17.52 -4.868,0 -9.438,-1.883 -10.171,-4.189 -0.353,-1.112 -0.371,-14.237 -0.04,-29.166 0.331,-14.93 0.866,-42.664 1.189,-61.633 0.323,-18.969 0.739,-34.734 0.925,-35.034 0.186,-0.299 10.497,-0.45 22.916,-0.334 25.764,0.24 24.408,0.724 24.195,-8.643 l -0.125,-5.5 c -15.387,-1.079 -31.138,0.942 -46.46,-1.126 -0.289,-0.29 -0.592,-3.854 -0.672,-7.92 l -0.146,-9.167 z"
       id="path38" /></g><path
     d="m 255.95,27.11 -75.35,80.504 150.7,1.168 -75.35,-81.674 h -0.003 z M 25,109.895 v 68.01 l 19.412,25.99 h 71.06 l 19.528,-26 v -68 H 121 V 125.89 H 103 V 109.896 H 89 v 15.995 H 71 V 109.897 H 57 v 15.995 H 39 V 109.898 H 25 Z m 352,0 v 68 l 19.527,26 h 71.06 L 487,177.906 v -68.01 h -14 v 15.995 h -18 v -15.994 h -14 v 15.995 h -18 v -15.994 h -14 v 15.995 H 391 V 109.899 H 377 Z M 201,125.772 V 260.89 H 311 V 126.63 l -110,-0.857 z m 55,20.118 c 8,0 16,4 16,12 v 32 h -32 v -32 c 0,-8 8,-12 16,-12 z M 41,221.897 V 484.89 h 78 V 221.897 Z m 352,0 V 484.89 h 78 V 221.897 Z M 56,241.89 c 4,0 8,4 8,12 v 32 H 48 v -32 c 0,-8 4,-12 8,-12 z m 400,0 c 4,0 8,4 8,12 v 32 h -16 v -32 c 0,-8 4,-12 8,-12 z m -303,37 v 23 h -16 v 183 h 87 v -55 c 0,-24 16,-36 32,-36 16,0 32,12 32,36 v 55 h 87 v -183 h -16 v -23 h -14 v 23 h -18 v -23 h -14 v 23 h -18 v -23 h -14 v 23 h -18 v -23 h -14 v 23 h -18 v -23 h -14 v 23 h -18 v -23 h -14 v 23 h -18 v -23 z m -49,43 c 4,0 8,4 8,12 v 32 H 96 v -32 c 0,-8 4,-12 8,-12 z m 72,0 c 8,0 16,4 16,12 v 32 h -32 v -32 c 0,-8 8,-12 16,-12 z m 80,0 c 8,0 16,4 16,12 v 32 h -32 v -32 c 0,-8 8,-12 16,-12 z m 80,0 c 8,0 16,4 16,12 v 32 h -32 v -32 c 0,-8 8,-12 16,-12 z m 72,0 c 4,0 8,4 8,12 v 32 h -16 v -32 c 0,-8 4,-12 8,-12 z m -352,64 c 4,0 8,4 8,12 v 32 H 48 v -32 c 0,-8 4,-12 8,-12 z m 400,0 c 4,0 8,4 8,12 v 32 h -16 v -32 c 0,-8 4,-12 8,-12 z"
     fill="#000000"
     fill-opacity="1"
     filter="url(#shadow-1)"
     id="path39"
     style="mix-blend-mode:normal;fill:#000000;stroke-width:3.77953;stroke-dasharray:none;filter:url(#filter37)"
     transform="matrix(0.04677021,0,0,0.04677021,13.336648,-1.1970225)" /></g></svg>
