<svg xmlns="http://www.w3.org/2000/svg" viewBox="0 0 512 512" style="height: 512px; width: 512px;"><defs><filter id="shadow-1" height="300%" width="300%" x="-100%" y="-100%"><feFlood flood-color="rgba(74, 74, 74, 1)" result="flood"></feFlood><feComposite in="flood" in2="SourceGraphic" operator="atop" result="composite"></feComposite><feGaussianBlur in="composite" stdDeviation="8" result="blur"></feGaussianBlur><feOffset dx="0" dy="0" result="offset"></feOffset><feComposite in="SourceGraphic" in2="offset" operator="over"></feComposite></filter></defs><g class="" transform="translate(0,0)" style=""><path d="M149 24.32 123 124.4l27.8 44.8 15.9-29.4 37.5 30.9 17.5-55.5zm169.7 43.7-32.2 48.38 10.7 25.5 21.9-21.7 18.1 42.8 10.3-21.7zm-83.4 64.18-21.9 69.3-41.3-33.9L152 205l-35.2-56.7-88.38 339.4H154.9c45.6-17 135.3-56.7 137.2-106.3 1.7-47.8-108.9-43.4-110.8-91.2-1.5-39.1 84.5-81.5 84.5-81.5s-54.1 43.3-47.4 71c12.9 53 125.6 27.6 143.2 79.3 13 38.2-33.5 104.3-52.2 128.7h174.2L356.5 164.3 336.4 207l-23.5-55.4-22.1 21.9-16.3-39.1-17 25.5z" fill="#000000" fill-opacity="1" filter="url(#shadow-1)"></path></g></svg>