<svg xmlns="http://www.w3.org/2000/svg" viewBox="0 0 512 512" style="height: 512px; width: 512px;"><defs><radialGradient id="lorc-ringing-bell-gradient-0"><stop offset="0%" stop-color="#d0021b" stop-opacity="1"></stop><stop offset="100%" stop-color="#ffffff" stop-opacity="0"></stop></radialGradient></defs><g class="" transform="translate(1,0)" style=""><g><path d="M254.125 26.188C236.748 26.185 222.465 40.468 222.469 57.844C222.469 65.461 225.202 72.484 229.749 77.969C218.959 81.845 210.706 88.932 202.843 100.029C189.786 118.459 179.156 149.059 167.437 192.811C157.18 231.101 143.092 249.823 132.78 263.374C122.47 276.924 116.528 283.699 116.53 306.062C116.532 309.562 118.505 313.376 124.97 318.092C131.433 322.809 141.847 327.475 154.875 331.28C180.93 338.892 217.317 343.242 255.125 343.25C274.509 343.254 293.493 342.1 310.905 339.97L310.905 340.094C323.035 339.051 344.237 336.196 362.25 329.814C368.045 327.759 373.53 325.392 378.375 322.281C380.987 320.905 383.322 319.534 385.25 318.126C391.708 313.412 393.688 309.603 393.688 306.096C393.684 283.733 387.753 276.961 377.438 263.406C367.122 249.853 353.018 231.136 342.75 192.846C331.018 149.089 320.407 118.496 307.344 100.064C299.119 88.457 290.449 81.228 278.906 77.47C283.216 72.06 285.814 65.23 285.812 57.844C285.81 40.467 271.502 26.19 254.125 26.187Z" class="selected" fill="#aaa228" fill-opacity="1"></path><path d="M254.125 44.875C261.403 44.875 267.125 50.569 267.125 57.845C267.125 65.117 261.403 70.815 254.125 70.813C246.847 70.811 241.157 65.117 241.155 57.843C241.155 50.57 246.848 44.873 254.125 44.875Z" class="" fill="#8b572a" fill-opacity="1"></path><path d="M263.345 88.095C297.961 98.283 312.905 152.781 321.469 189.655C336.459 254.215 367.121 272.635 374.499 300.905C374.172 301.538 373.497 302.191 372.405 303.313C369.74 306.053 363.589 309.529 355.999 312.219C348.633 314.829 339.999 316.833 331.811 318.343C330.081 280.319 298.046 264.793 298.561 210.873C299.164 147.83 281.371 107.521 259.061 89.093C260.51 88.861 261.941 88.527 263.343 88.093Z" class="" fill="#ddcc09" fill-opacity="1"></path><path d="M56.469 179.375C23.546 223.947 11.19 289.253 28.874 355.25C47.082 423.207 92.436 474.244 145.187 495.28C106.595 464.862 72.927 412.057 55.437 346.78C38.763 284.552 40.513 224.414 56.467 179.375Z" class="" fill="#d0021b" fill-opacity="1"></path><path d="M455.905 179.375C471.86 224.415 473.61 284.552 456.935 346.781C439.445 412.058 405.778 464.863 367.187 495.281C419.937 474.245 465.322 423.208 483.53 355.251C501.216 289.254 488.828 223.948 455.906 179.376Z" class="" fill="#d0021b" fill-opacity="1"></path><path d="M105.687 210.28C75.977 244.71 63.254 294.02 76.344 342.875C89.822 393.181 127.189 429.957 171.844 444.031C139.654 422.481 112.384 384.011 99.438 335.689C87.094 289.623 90.542 244.514 105.688 210.282Z" class="" fill="#d0021b" fill-opacity="1"></path><path d="M406.719 210.28C421.863 244.513 425.279 289.622 412.936 335.687C399.989 384.009 372.751 422.48 340.561 444.031C385.216 429.958 422.551 393.181 436.031 342.876C449.121 294.02 436.427 244.71 406.718 210.282Z" class="" fill="#d0021b" fill-opacity="1"></path><path d="M146.53 348.25C147.748 360.986 158.474 370.936 171.53 370.938C180.63 370.947 189.023 366.034 193.47 358.094C177.484 355.984 162.647 353.014 149.656 349.219C148.596 348.909 147.566 348.569 146.531 348.249Z" class="" fill="#aea10e" fill-opacity="1"></path></g></g></svg>